<svg width="20" height="22" viewBox="0 0 20 22" fill="none" xmlns="http://www.w3.org/2000/svg">
<path d="M1.09265 8.40445L18.9166 8.40445" stroke="#151717" stroke-width="1.2" stroke-linecap="round" stroke-linejoin="round"/>
<path d="M14.4421 12.3097H14.4514" stroke="#151717" stroke-width="1.2" stroke-linecap="round" stroke-linejoin="round"/>
<path d="M10.0046 12.3097H10.0139" stroke="#151717" stroke-width="1.2" stroke-linecap="round" stroke-linejoin="round"/>
<path d="M5.55793 12.3097H5.5672" stroke="#151717" stroke-width="1.2" stroke-linecap="round" stroke-linejoin="round"/>
<path d="M14.4421 16.1964H14.4514" stroke="#151717" stroke-width="1.2" stroke-linecap="round" stroke-linejoin="round"/>
<path d="M10.0046 16.1964H10.0139" stroke="#151717" stroke-width="1.2" stroke-linecap="round" stroke-linejoin="round"/>
<path d="M5.55793 16.1964H5.5672" stroke="#151717" stroke-width="1.2" stroke-linecap="round" stroke-linejoin="round"/>
<path d="M14.0438 1V4.29078" stroke="#151717" stroke-width="1.2" stroke-linecap="round" stroke-linejoin="round"/>
<path d="M5.96552 1L5.96552 4.29078" stroke="#151717" stroke-width="1.2" stroke-linecap="round" stroke-linejoin="round"/>
<path fillRule="evenodd" clipRule="evenodd" d="M14.2383 2.5791L5.77096 2.5791C2.83427 2.5791 1 4.21504 1 7.22213L1 16.2718C1 19.3261 2.83427 20.9999 5.77096 20.9999L14.229 20.9999C17.175 20.9999 19 19.3545 19 16.3474L19 7.22213C19.0092 4.21504 17.1842 2.5791 14.2383 2.5791Z" stroke="#151717" stroke-width="1.2" stroke-linecap="round" stroke-linejoin="round"/>
</svg>
