<svg width="24" height="24" viewBox="0 0 24 24" fill="none" xmlns="http://www.w3.org/2000/svg">
<g clip-path="url(#clip0_95_671)">
<path fill-rule="evenodd" clip-rule="evenodd" d="M3.93435 13.0671C2.8497 13.0671 1.96914 13.9548 1.96914 15.0477C1.96914 16.1408 2.8497 17.0283 3.93435 17.0283C5.019 17.0283 5.89956 16.1408 5.89956 15.0477C5.89956 13.9548 5.019 13.0671 3.93435 13.0671ZM3.93435 14.2977C3.52375 14.2977 3.19016 14.6339 3.19016 15.0477C3.19016 15.4617 3.52375 15.7977 3.93435 15.7977C4.34514 15.7977 4.67854 15.4617 4.67854 15.0477C4.67854 14.6339 4.34514 14.2977 3.93435 14.2977ZM19.6549 13.0671C18.5703 13.0671 17.6897 13.9548 17.6897 15.0477C17.6897 16.1408 18.5703 17.0283 19.6549 17.0283C20.7396 17.0283 21.6201 16.1408 21.6201 15.0477C21.6201 13.9548 20.7396 13.0671 19.6549 13.0671ZM19.6549 14.2977C19.2441 14.2977 18.9107 14.6339 18.9107 15.0477C18.9107 15.4617 19.2441 15.7977 19.6549 15.7977C20.0657 15.7977 20.3991 15.4617 20.3991 15.0477C20.3991 14.6339 20.0657 14.2977 19.6549 14.2977Z" fill="#1D63EB"/>
<path fill-rule="evenodd" clip-rule="evenodd" d="M22.8042 11.8199H22.0212C21.8158 11.8199 21.6491 11.9879 21.6491 12.1949C21.6491 12.4019 21.8158 12.5699 22.0212 12.5699H23.2507C23.2973 12.6828 23.3373 12.7994 23.3704 12.9196C23.4282 13.1302 23.4868 13.3426 23.544 13.5502C23.6682 14.0019 23.5761 14.486 23.2946 14.8591C23.0132 15.2322 22.5748 15.4512 22.1097 15.4512H21.9579C21.9804 15.3202 21.9921 15.1854 21.9921 15.0477C21.9921 13.7478 20.9449 12.6922 19.6548 12.6922C18.3648 12.6922 17.3175 13.7478 17.3175 15.0477C17.3175 15.1854 17.3293 15.3202 17.3518 15.4512H6.23735C6.25986 15.3202 6.27158 15.1854 6.27158 15.0477C6.27158 13.7478 5.22433 12.6922 3.93428 12.6922C2.64423 12.6922 1.59698 13.7478 1.59698 15.0477C1.59698 15.1854 1.6087 15.3202 1.63121 15.4512H1.27679C0.865812 15.4512 0.532602 15.1154 0.532602 14.7012C0.532602 14.0371 0.532602 13.0479 0.532602 12.2219C0.532602 11.3934 1.19884 10.7219 2.02098 10.7219C2.3473 10.7219 2.67698 10.7219 2.95121 10.7219C3.23028 10.7219 3.63084 10.5344 3.76981 9.97192C4.20312 8.21692 5.77 6.97192 7.58004 6.97192C9.29167 6.97192 11.3988 6.97192 13.1533 6.97192C15.0671 6.97192 16.7733 8.13199 17.506 9.87817C17.7813 10.5344 18.6346 10.7219 18.9512 10.7219C19.415 10.7219 19.9655 10.7219 20.5019 10.7219C21.415 10.7219 22.2517 11.1408 22.8042 11.8199ZM12.3908 12.5699H11.3745C11.1693 12.5699 11.0024 12.4019 11.0024 12.1949C11.0024 11.9879 11.1693 11.8199 11.3745 11.8199H12.3908C12.5962 11.8199 12.7629 11.9879 12.7629 12.1949C12.7629 12.4019 12.5962 12.5699 12.3908 12.5699ZM7.12479 12.5699H6.1086C5.90321 12.5699 5.73651 12.4019 5.73651 12.1949C5.73651 11.9879 5.90321 11.8199 6.1086 11.8199H7.12479C7.33018 11.8199 7.49688 11.9879 7.49688 12.1949C7.49688 12.4019 7.33018 12.5699 7.12479 12.5699ZM10.9512 8.47192H13.4839C14.7168 8.47192 15.7164 9.47917 15.7164 10.7219H10.9512V8.47192ZM10.207 8.47192V10.7219H5.83493C5.83493 9.47917 6.83437 8.47192 8.06749 8.47192H10.207Z" fill="#1D63EB"/>
</g>
<defs>
<clipPath id="clip0_95_671">
<rect width="24" height="24" fill="white" transform="matrix(-1 0 0 1 24 0)"/>
</clipPath>
</defs>
</svg>
