<svg width="204" height="74" viewBox="0 0 204 74" fill="none" xmlns="http://www.w3.org/2000/svg">
<path d="M51.3794 20.4511C51.3739 20.0571 51.4474 19.6658 51.5956 19.3007C51.7439 18.9355 51.9638 18.6037 52.2424 18.3249C52.5211 18.0461 52.8528 17.8261 53.2179 17.6776C53.583 17.5292 53.9742 17.4555 54.3683 17.4608C55.1633 17.457 55.9275 17.7677 56.4943 18.3251C57.0459 18.8957 57.3551 19.6576 57.3572 20.4511C57.352 20.057 57.4258 19.6658 57.5742 19.3007C57.7227 18.9355 57.9428 18.6038 58.2215 18.3251C58.5002 18.0464 58.8319 17.8263 59.1971 17.6779C59.5622 17.5294 59.9534 17.4556 60.3475 17.4608C61.1425 17.4573 61.9066 17.7679 62.4736 18.3251C62.7485 18.6602 62.9619 19.0414 63.1037 19.451C63.2526 19.8369 63.3364 20.152 63.3364 20.152C63.3364 18.5817 63.0272 17.0269 62.4263 15.5762C61.8254 14.1255 60.9446 12.8074 59.8343 11.697C58.724 10.5867 57.4058 9.70598 55.9551 9.10508C54.5044 8.50418 52.9496 8.1949 51.3794 8.1949C49.8091 8.1949 48.2543 8.50418 46.8036 9.10508C45.3529 9.70598 44.0348 10.5867 42.9244 11.697C41.8141 12.8074 40.9334 14.1255 40.3325 15.5762C39.7316 17.0269 39.4223 18.5817 39.4223 20.152C39.4223 20.152 39.7533 18.8902 40.2851 18.3251C40.8556 17.7731 41.6175 17.4634 42.4112 17.4608C43.2061 17.4573 43.9702 17.7679 44.5373 18.3251C45.0882 18.896 45.3973 19.6577 45.4001 20.4511C45.3949 20.057 45.4687 19.6658 45.6172 19.3007C45.7656 18.9355 45.9857 18.6038 46.2644 18.3251C46.5431 18.0464 46.8748 17.8263 47.24 17.6779C47.6051 17.5294 47.9963 17.4556 48.3905 17.4608C49.185 17.457 49.9488 17.7677 50.5151 18.3251C51.067 18.8955 51.3768 19.6574 51.3794 20.4511ZM51.3794 1.55658C56.1753 1.55658 60.7748 3.46175 64.166 6.85298C67.5572 10.2442 69.4624 14.8437 69.4624 19.6396C69.4624 24.4355 67.5572 29.035 64.166 32.4262C60.7748 35.8175 56.1753 37.7226 51.3794 37.7226C51.2984 37.7226 51.2175 37.7226 51.1366 37.7212C46.3634 37.6551 41.81 35.7044 38.4694 32.2944C35.1288 28.8844 33.2721 24.2919 33.3041 19.5183C33.3362 14.7448 35.2544 10.1776 38.6405 6.81281C42.0266 3.448 46.6057 1.55856 51.3794 1.55658Z" fill="#DBCFFC"/>
<path d="M51.3795 20.4511C51.3769 19.6574 51.0671 18.8955 50.5152 18.3251C49.9489 17.7677 49.1851 17.457 48.3906 17.4608C47.9964 17.4556 47.6052 17.5294 47.2401 17.6778C46.8749 17.8263 46.5432 18.0464 46.2645 18.3251C45.9858 18.6038 45.7657 18.9355 45.6173 19.3007C45.4688 19.6658 45.395 20.057 45.4002 20.4511C45.3974 19.6577 45.0883 18.896 44.5374 18.3251C43.9703 17.7679 43.2062 17.4573 42.4113 17.4608C41.6176 17.4634 40.8557 17.7731 40.2852 18.3251C39.7534 18.8902 39.4224 20.152 39.4224 20.152C39.4224 16.9807 40.6822 13.9394 42.9245 11.697C45.1669 9.45465 48.2083 8.19489 51.3795 8.19489C54.5507 8.19489 57.592 9.45465 59.8344 11.697C62.0768 13.9394 63.3365 16.9807 63.3365 20.152C63.3365 20.152 63.2527 19.8369 63.1038 19.451C62.962 19.0414 62.7486 18.6602 62.4737 18.3251C61.9067 17.7679 61.1426 17.4573 60.3476 17.4608C59.9535 17.4556 59.5623 17.5294 59.1972 17.6778C58.832 17.8263 58.5003 18.0464 58.2216 18.3251C57.9429 18.6038 57.7228 18.9355 57.5743 19.3007C57.4259 19.6658 57.3521 20.057 57.3573 20.4511C57.3552 19.6576 57.046 18.8956 56.4944 18.3251C55.9276 17.7677 55.1633 17.457 54.3684 17.4608C53.9743 17.4555 53.5831 17.5292 53.218 17.6776C52.8529 17.826 52.5212 18.0461 52.2425 18.3249C51.9639 18.6037 51.744 18.9354 51.5957 19.3006C51.4475 19.6658 51.374 20.057 51.3795 20.4511ZM51.1367 37.7212V47.162C51.1367 52.3607 47.6592 58.9254 43.3695 61.8492L27.8368 72.4434L12.304 61.8492C8.01431 58.9254 4.53833 52.3289 4.53833 47.162V25.3305L27.8368 13.9198L33.5313 16.7164C33.1128 19.2837 33.2527 21.911 33.9415 24.4193C34.6303 26.9276 35.8518 29.2579 37.5227 31.2515C39.1936 33.245 41.2746 34.8548 43.624 35.9713C45.9733 37.0878 48.5358 37.6846 51.1367 37.7212ZM38.879 46.6836V40.1797H30.9297V32.2304H24.5704V40.1797H16.4766V46.6836H24.5704V54.6328H30.9297V46.6836H38.879Z" fill="#3C0FBD"/>
<path d="M32.0859 32.2304C32.0859 31.9238 31.9641 31.6297 31.7473 31.4128C31.5304 31.196 31.2363 31.0742 30.9297 31.0742H24.5703C24.2637 31.0742 23.9696 31.196 23.7527 31.4128C23.5359 31.6297 23.4141 31.9238 23.4141 32.2304V39.0234H16.4766C16.1699 39.0234 15.8758 39.1452 15.659 39.3621C15.4421 39.5789 15.3203 39.873 15.3203 40.1797V46.6836C15.3203 46.9902 15.4421 47.2843 15.659 47.5012C15.8758 47.718 16.1699 47.8398 16.4766 47.8398H23.4141V54.6328C23.4141 54.9394 23.5359 55.2335 23.7527 55.4504C23.9696 55.6672 24.2637 55.789 24.5703 55.789H30.9297C31.2363 55.789 31.5304 55.6672 31.7473 55.4504C31.9641 55.2335 32.0859 54.9394 32.0859 54.6328V47.8398H38.8789C39.1856 47.8398 39.4797 47.718 39.6965 47.5012C39.9133 47.2843 40.0352 46.9902 40.0352 46.6836V40.1797C40.0352 39.873 39.9133 39.5789 39.6965 39.3621C39.4797 39.1452 39.1856 39.0234 38.8789 39.0234H32.0859V32.2304ZM37.7227 41.3359V45.5273H30.9297C30.623 45.5273 30.3289 45.6491 30.1121 45.866C29.8953 46.0828 29.7734 46.3769 29.7734 46.6836V53.4765H25.7266V46.6836C25.7266 46.3769 25.6047 46.0828 25.3879 45.866C25.1711 45.6491 24.877 45.5273 24.5703 45.5273H17.6328V41.3359H24.5703C24.877 41.3359 25.1711 41.2141 25.3879 40.9972C25.6047 40.7804 25.7266 40.4863 25.7266 40.1797V33.3867H29.7734V40.1797C29.7734 40.4863 29.8953 40.7804 30.1121 40.9972C30.3289 41.2141 30.623 41.3359 30.9297 41.3359H37.7227ZM51.3794 7.03864C49.6571 7.03791 47.9516 7.37661 46.3603 8.03536C44.769 8.69411 43.3231 9.66 42.1053 10.8778C40.8875 12.0957 39.9216 13.5415 39.2628 15.1329C38.6041 16.7242 38.2654 18.4297 38.2661 20.152C38.2661 20.4328 38.3683 20.7041 38.5537 20.9151C38.7391 21.1261 38.995 21.2624 39.2735 21.2986C39.5521 21.3347 39.8343 21.2683 40.0674 21.1116C40.3005 20.9549 40.4686 20.7187 40.5403 20.4471C40.6624 19.9873 40.9161 19.366 41.1082 19.1389C41.4615 18.8074 41.9267 18.621 42.4113 18.617C42.8934 18.6135 43.3581 18.7975 43.7071 19.1303C44.0475 19.4863 44.2394 19.9586 44.2439 20.4511C44.2439 20.7578 44.3657 21.0519 44.5826 21.2687C44.7994 21.4856 45.0935 21.6074 45.4002 21.6074C45.7068 21.6074 46.0009 21.4856 46.2178 21.2687C46.4346 21.0519 46.5564 20.7578 46.5564 20.4511C46.5514 20.2089 46.5955 19.9682 46.6859 19.7434C46.7763 19.5187 46.9112 19.3145 47.0826 19.1432C47.2539 18.9719 47.458 18.837 47.6828 18.7465C47.9076 18.6561 48.1483 18.6121 48.3905 18.617C48.6239 18.6152 48.8553 18.6596 49.0714 18.7477C49.2875 18.8358 49.484 18.9658 49.6495 19.1303C49.9787 19.4908 50.1584 19.963 50.1523 20.4511V29.4236C50.1586 29.4884 50.1511 29.5538 50.1302 29.6155C50.1093 29.6771 50.0756 29.7337 50.0313 29.7813C49.987 29.829 49.9331 29.8667 49.8731 29.892C49.8131 29.9173 49.7484 29.9296 49.6833 29.9281C49.6191 29.9302 49.5552 29.9186 49.4959 29.894C49.4366 29.8694 49.3832 29.8323 49.3394 29.7854C49.294 29.7372 49.2588 29.6804 49.2358 29.6183C49.2128 29.5562 49.2024 29.4902 49.2054 29.4241C49.2071 29.2716 49.1785 29.1203 49.1214 28.9789C49.0642 28.8375 48.9795 28.7089 48.8723 28.6005C48.7651 28.4921 48.6374 28.406 48.4967 28.3472C48.356 28.2885 48.205 28.2582 48.0525 28.2582C47.9 28.2582 47.7491 28.2885 47.6083 28.3472C47.4676 28.406 47.3399 28.4921 47.2327 28.6005C47.1255 28.7089 47.0409 28.8375 46.9837 28.9789C46.9265 29.1203 46.898 29.2716 46.8997 29.4241C46.8977 29.7947 46.9693 30.162 47.1102 30.5048C47.2512 30.8476 47.4587 31.1591 47.7207 31.4212C47.976 31.6825 48.2813 31.8898 48.6184 32.0306C48.9555 32.1714 49.3175 32.243 49.6828 32.241C50.052 32.2443 50.4182 32.1735 50.7596 32.0326C51.1009 31.8918 51.4105 31.6838 51.67 31.421C51.9295 31.1583 52.1335 30.8461 52.2701 30.503C52.4066 30.1599 52.4728 29.7928 52.4648 29.4236V20.4511C52.4799 19.9598 52.6803 19.4924 53.0256 19.1427C53.3866 18.8089 53.8589 18.6215 54.3505 18.617C54.8356 18.6134 55.3032 18.7974 55.6557 19.1307C55.9978 19.4857 56.1913 19.9581 56.1965 20.4511C56.1999 20.756 56.3234 21.0472 56.5402 21.2616C56.757 21.476 57.0495 21.5962 57.3544 21.5962C57.6593 21.5962 57.9519 21.476 58.1686 21.2616C58.3854 21.0472 58.5089 20.756 58.5123 20.4511C58.5075 20.2088 58.5517 19.9681 58.6423 19.7433C58.7329 19.5185 58.8679 19.3143 59.0393 19.143C59.2108 18.9717 59.415 18.8368 59.6399 18.7464C59.8648 18.6561 60.1056 18.612 60.3479 18.617C60.8285 18.6135 61.2919 18.7963 61.6407 19.1271C61.8056 19.3529 61.9353 19.6023 62.0254 19.8669C62.1477 20.1839 62.2195 20.4493 62.2195 20.4493C62.2916 20.7206 62.46 20.9565 62.6932 21.1129C62.9264 21.2692 63.2086 21.3354 63.487 21.299C63.7654 21.2626 64.021 21.1261 64.2062 20.915C64.3914 20.704 64.4934 20.4327 64.4933 20.152C64.4894 16.6752 63.1065 13.3419 60.648 10.8835C58.1895 8.42515 54.8562 7.04239 51.3794 7.03864ZM60.3476 16.3045C59.2587 16.3041 58.2123 16.7266 57.4291 17.483C57.412 17.4991 57.3955 17.5157 57.3795 17.5328C57.3723 17.5403 57.365 17.5481 57.358 17.5557L57.3364 17.5328C57.3283 17.5242 57.3202 17.5159 57.312 17.5076C56.5274 16.7348 55.4696 16.3025 54.3683 16.3045C53.2806 16.3098 52.2362 16.7316 51.4498 17.483C51.4323 17.4995 51.4156 17.5164 51.3992 17.5338L51.3787 17.5557L51.357 17.5326C51.3493 17.5244 51.3417 17.5164 51.3339 17.5086C50.5499 16.7349 49.492 16.3021 48.3905 16.3045C47.3022 16.3093 46.2572 16.7315 45.471 17.4841C45.4544 17.4998 45.4382 17.516 45.4224 17.5328L45.401 17.5557L45.3805 17.5338C45.3723 17.5248 45.3637 17.5161 45.3551 17.5075C44.8194 16.9826 44.1533 16.6104 43.4256 16.4291C42.6979 16.2479 41.935 16.2642 41.2157 16.4765C41.972 14.389 43.3529 12.585 45.1707 11.3101C46.9886 10.0351 49.155 9.35104 51.3753 9.35088C53.5956 9.35072 55.7621 10.0345 57.5801 11.3092C59.3981 12.5839 60.7793 14.3876 61.5359 16.4751C61.1499 16.3621 60.7498 16.3046 60.3476 16.3045Z" fill="#170647"/>
<path d="M51.3794 0.40033C47.0803 0.4006 42.905 1.84039 39.5195 4.49009C36.1339 7.1398 33.7331 10.8468 32.6999 15.02L28.3465 12.8819C28.188 12.8042 28.0139 12.7638 27.8374 12.7638C27.6609 12.7638 27.4867 12.8042 27.3283 12.8819L4.00091 24.2926C3.80324 24.3862 3.63536 24.5328 3.51591 24.716C3.39646 24.8992 3.33011 25.1119 3.32422 25.3305V47.162C3.32422 49.8482 4.20832 52.9468 5.76116 55.8867C7.31617 58.8308 9.4126 61.2877 11.6379 62.8046L27.1779 73.3987C27.371 73.5297 27.5989 73.5998 27.8322 73.5998C28.0655 73.5998 28.2934 73.5297 28.4864 73.3987L44.0336 62.8046C48.6722 59.6431 52.3203 52.772 52.3203 47.162V38.8566C62.4375 38.3781 70.6324 29.9417 70.6324 19.6389C70.6324 9.03072 61.9876 0.40033 51.3794 0.40033ZM50.0078 47.162C50.0078 52.0038 46.7363 58.1646 42.7318 60.894L27.8435 71.0437L12.9296 60.8939C8.99404 58.2112 5.63672 51.9228 5.63672 47.162V26.0517L27.8078 15.2076L32.2576 17.3871C32.1723 18.1349 32.1304 18.887 32.1322 19.6396C32.14 24.5036 33.987 29.1847 37.3025 32.7436C40.6179 36.3025 45.1566 38.476 50.0078 38.828V47.162ZM51.3794 36.5664C51.3051 36.5664 51.231 36.5664 51.1518 36.5651C46.7025 36.5063 42.4555 34.6968 39.331 31.5285C36.2066 28.3603 34.4563 24.0886 34.4594 19.6389C34.4629 18.722 34.5392 17.8069 34.6875 16.902C35.2656 12.9834 37.3363 9.3922 40.3676 6.79034C42.4393 5.01505 44.9094 3.7669 47.5676 3.15225C50.2257 2.53761 52.993 2.57469 55.6338 3.26033C58.2745 3.94597 60.7103 5.25985 62.7337 7.09002C64.757 8.92018 66.308 11.2124 67.2543 13.7713C68.2006 16.3302 68.5143 19.0799 68.1686 21.7862C67.823 24.4925 66.8281 27.0751 65.269 29.314C63.7098 31.5528 61.6325 33.3816 59.214 34.6444C56.7956 35.9071 54.1077 36.5665 51.3794 36.5664Z" fill="#083863"/>
<path d="M99.7699 45.7244H94.4574C94.3059 44.8532 94.0265 44.0814 93.6193 43.4091C93.2121 42.7273 92.7055 42.1496 92.0994 41.6761C91.4934 41.2027 90.8021 40.8475 90.0256 40.6108C89.2585 40.3646 88.4299 40.2415 87.5398 40.2415C85.9583 40.2415 84.5568 40.6392 83.3352 41.4347C82.1136 42.2206 81.1572 43.3759 80.4659 44.9006C79.7746 46.4157 79.429 48.267 79.429 50.4545C79.429 52.6799 79.7746 54.5549 80.4659 56.0795C81.1667 57.5947 82.1231 58.7405 83.3352 59.517C84.5568 60.2841 85.9536 60.6676 87.5256 60.6676C88.3968 60.6676 89.2112 60.554 89.9688 60.3267C90.7358 60.09 91.4223 59.7443 92.0284 59.2898C92.6439 58.8352 93.16 58.2765 93.5767 57.6136C94.0028 56.9508 94.2964 56.1932 94.4574 55.3409L99.7699 55.3693C99.571 56.7519 99.1402 58.0492 98.4773 59.2614C97.8239 60.4735 96.9669 61.5436 95.9062 62.4716C94.8456 63.3902 93.6051 64.1098 92.1847 64.6307C90.7642 65.142 89.1875 65.3977 87.4545 65.3977C84.8977 65.3977 82.6155 64.8059 80.608 63.6222C78.6004 62.4384 77.0189 60.7292 75.8636 58.4943C74.7083 56.2595 74.1307 53.5795 74.1307 50.4545C74.1307 47.3201 74.7131 44.6402 75.8778 42.4148C77.0426 40.1799 78.6288 38.4706 80.6364 37.2869C82.6439 36.1032 84.9167 35.5114 87.4545 35.5114C89.0739 35.5114 90.5795 35.7386 91.9716 36.1932C93.3636 36.6477 94.6042 37.3153 95.6932 38.196C96.7822 39.0672 97.6771 40.1373 98.3778 41.4062C99.0881 42.6657 99.5521 44.1051 99.7699 45.7244ZM107.969 65V43.1818H112.954V46.8182H113.182C113.579 45.5587 114.261 44.5881 115.227 43.9062C116.203 43.215 117.315 42.8693 118.565 42.8693C118.849 42.8693 119.167 42.8835 119.517 42.9119C119.877 42.9309 120.175 42.964 120.412 43.0114V47.7415C120.194 47.6657 119.848 47.5994 119.375 47.5426C118.911 47.4763 118.461 47.4432 118.025 47.4432C117.088 47.4432 116.245 47.6468 115.497 48.054C114.758 48.4517 114.176 49.0057 113.75 49.7159C113.324 50.4261 113.111 51.2453 113.111 52.1733V65H107.969ZM133.316 65.4403C131.933 65.4403 130.688 65.1941 129.58 64.7017C128.481 64.1998 127.61 63.4612 126.966 62.4858C126.332 61.5104 126.015 60.3078 126.015 58.8778C126.015 57.6468 126.242 56.6288 126.696 55.8239C127.151 55.0189 127.771 54.375 128.557 53.892C129.343 53.4091 130.229 53.0445 131.213 52.7983C132.208 52.5426 133.235 52.358 134.296 52.2443C135.574 52.1117 136.611 51.9934 137.407 51.8892C138.202 51.7756 138.78 51.6051 139.14 51.3778C139.509 51.1411 139.694 50.7765 139.694 50.2841V50.1989C139.694 49.1288 139.376 48.3002 138.742 47.7131C138.107 47.1259 137.194 46.8324 136 46.8324C134.741 46.8324 133.742 47.107 133.003 47.6562C132.274 48.2055 131.782 48.8542 131.526 49.6023L126.725 48.9205C127.104 47.5947 127.729 46.4867 128.6 45.5966C129.471 44.697 130.536 44.0246 131.796 43.5795C133.055 43.125 134.447 42.8977 135.972 42.8977C137.023 42.8977 138.07 43.0208 139.111 43.267C140.153 43.5133 141.105 43.9205 141.966 44.4886C142.828 45.0473 143.519 45.8097 144.04 46.7756C144.571 47.7415 144.836 48.9489 144.836 50.3977V65H139.892V62.0028H139.722C139.41 62.6089 138.969 63.1771 138.401 63.7074C137.842 64.2282 137.137 64.6496 136.285 64.9716C135.442 65.2841 134.452 65.4403 133.316 65.4403ZM134.651 61.6619C135.683 61.6619 136.578 61.4583 137.336 61.0511C138.093 60.6345 138.676 60.0852 139.083 59.4034C139.499 58.7216 139.708 57.9782 139.708 57.1733V54.6023C139.547 54.7348 139.272 54.858 138.884 54.9716C138.505 55.0852 138.079 55.1847 137.606 55.2699C137.132 55.3551 136.663 55.4309 136.199 55.4972C135.735 55.5634 135.333 55.6203 134.992 55.6676C134.225 55.7718 133.538 55.9422 132.932 56.179C132.326 56.4157 131.848 56.7472 131.498 57.1733C131.147 57.59 130.972 58.1297 130.972 58.7926C130.972 59.7396 131.318 60.4545 132.009 60.9375C132.7 61.4205 133.581 61.6619 134.651 61.6619Z" fill="black"/>
<path d="M161.703 65.3835C159.989 65.3835 158.455 64.9432 157.1 64.0625C155.746 63.1818 154.676 61.9034 153.89 60.2273C153.104 58.5511 152.711 56.5152 152.711 54.1193C152.711 51.6951 153.109 49.6496 153.904 47.983C154.709 46.3068 155.794 45.0426 157.157 44.1903C158.521 43.3286 160.041 42.8977 161.717 42.8977C162.995 42.8977 164.046 43.1155 164.87 43.5511C165.694 43.9773 166.348 44.4934 166.831 45.0994C167.313 45.696 167.688 46.2595 167.953 46.7898H168.166V35.9091H173.322V65H168.265V61.5625H167.953C167.688 62.0928 167.304 62.6562 166.802 63.2528C166.3 63.84 165.637 64.3419 164.813 64.7585C163.99 65.1752 162.953 65.3835 161.703 65.3835ZM163.137 61.1648C164.226 61.1648 165.154 60.8712 165.921 60.2841C166.688 59.6875 167.271 58.8589 167.669 57.7983C168.066 56.7377 168.265 55.5019 168.265 54.0909C168.265 52.6799 168.066 51.4536 167.669 50.4119C167.28 49.3703 166.703 48.5606 165.936 47.983C165.178 47.4053 164.245 47.1165 163.137 47.1165C161.992 47.1165 161.035 47.4148 160.268 48.0114C159.501 48.608 158.923 49.4318 158.535 50.483C158.147 51.5341 157.953 52.7367 157.953 54.0909C157.953 55.4545 158.147 56.6714 158.535 57.7415C158.933 58.8021 159.515 59.6402 160.282 60.2557C161.059 60.8617 162.01 61.1648 163.137 61.1648ZM192.061 65.4261C189.873 65.4261 187.984 64.9716 186.393 64.0625C184.811 63.1439 183.595 61.8466 182.742 60.1705C181.89 58.4848 181.464 56.5009 181.464 54.2188C181.464 51.9744 181.89 50.0047 182.742 48.3097C183.604 46.6051 184.807 45.2794 186.35 44.3324C187.894 43.3759 189.707 42.8977 191.791 42.8977C193.135 42.8977 194.404 43.1155 195.597 43.5511C196.8 43.9773 197.861 44.6402 198.779 45.5398C199.707 46.4394 200.436 47.5852 200.967 48.9773C201.497 50.3598 201.762 52.0076 201.762 53.9205V55.4972H183.879V52.0312H196.833C196.824 51.0464 196.611 50.1705 196.194 49.4034C195.777 48.6269 195.195 48.0161 194.447 47.571C193.708 47.1259 192.846 46.9034 191.862 46.9034C190.811 46.9034 189.887 47.1591 189.092 47.6705C188.296 48.1723 187.676 48.8352 187.231 49.6591C186.795 50.4735 186.573 51.3684 186.563 52.3438V55.3693C186.563 56.6383 186.795 57.7273 187.259 58.6364C187.723 59.536 188.372 60.2273 189.205 60.7102C190.039 61.1837 191.014 61.4205 192.132 61.4205C192.88 61.4205 193.557 61.3163 194.163 61.108C194.769 60.8902 195.294 60.5729 195.739 60.1562C196.185 59.7396 196.521 59.2235 196.748 58.608L201.549 59.1477C201.246 60.4167 200.668 61.5246 199.816 62.4716C198.973 63.4091 197.894 64.1383 196.578 64.6591C195.261 65.1705 193.756 65.4261 192.061 65.4261Z" fill="#3C0FBD"/>
</svg>
