<svg width="24" height="24" viewBox="0 0 24 24" fill="none" xmlns="http://www.w3.org/2000/svg">
<path d="M15.6251 4C15.6251 5.10455 14.7297 6 13.6251 6C12.5205 6 11.6251 5.10455 11.6251 4C11.6251 2.89543 12.5205 2 13.6251 2C14.7297 2 15.6251 2.89543 15.6251 4ZM12.8464 14.1984L15.4428 16.7603C15.5424 16.8586 15.6202 16.9766 15.6713 17.1068L17.056 20.6346C17.2577 21.1487 17.0045 21.7291 16.4904 21.9308C15.9763 22.1326 15.396 21.8794 15.1942 21.3654L13.8871 18.035L9.42274 13.6299C9.20434 13.4144 9.09694 13.1105 9.13144 12.8056L9.48904 9.64595C8.62709 10.5023 7.96219 11.7072 7.45264 13.3035C7.28474 13.8296 6.72209 14.12 6.19594 13.9521C5.66979 13.7841 5.37944 13.2214 5.54739 12.6953C6.48249 9.7656 8.03504 7.5727 10.6398 6.56705L10.6517 6.56255C11.315 6.31605 12.0052 6.3359 12.6199 6.6537C13.2107 6.9591 13.6312 7.48655 13.9065 8.0777C14.0224 8.3266 14.1297 8.5592 14.2303 8.77755C14.4742 9.30645 14.6797 9.75205 14.8767 10.1437C15.1536 10.6938 15.3761 11.0581 15.596 11.3142C15.7999 11.5517 16.0027 11.6976 16.2612 11.7985C16.5391 11.9071 16.9286 11.9818 17.53 11.9999C18.082 12.0164 18.5161 12.4774 18.4996 13.0294C18.483 13.5814 18.0221 14.0155 17.47 13.999C16.7476 13.9773 16.106 13.885 15.5336 13.6615C14.9419 13.4304 14.4753 13.0792 14.0785 12.617C13.8282 12.3254 13.6088 11.993 13.4031 11.6311L12.8464 14.1984Z" fill="#EB1D1D"/>
<path d="M9.13134 15.1099L10.7889 16.6997L10.0262 19.2735C9.96714 19.4726 9.84759 19.6485 9.68404 19.7765L7.11674 21.7877C6.68199 22.1283 6.05344 22.0519 5.71284 21.6172C5.37224 21.1824 5.44859 20.5539 5.88339 20.2133L8.19934 18.399L8.89719 16.044L9.13134 15.1099Z" fill="#EB1D1D"/>
</svg>
